<svg xmlns="http://www.w3.org/2000/svg" xmlns:xlink="http://www.w3.org/1999/xlink" version="1.1" x="0px" y="0px" viewBox="0 0 100 125" style="enable-background:new 0 0 100 100;" xml:space="preserve"><g><path d="M84.8,22.3L47.5,59.7L33.2,45.3c-0.8-0.8-2-0.8-2.8,0c-0.8,0.8-0.8,2,0,2.8l15.7,15.7c0.4,0.4,0.9,0.6,1.4,0.6   s1-0.2,1.4-0.6l38.7-38.7c0.8-0.8,0.8-2,0-2.8C86.9,21.6,85.6,21.6,84.8,22.3z"/><path d="M50,85c19.3,0,35-15.7,35-35c0-3.2-0.4-6.5-1.3-9.5c-0.3-1.1-1.4-1.7-2.5-1.4c-1.1,0.3-1.7,1.4-1.4,2.5   c0.8,2.7,1.2,5.6,1.2,8.5c0,17.1-13.9,31-31,31S19,67.1,19,50s13.9-31,31-31c7.3,0,14.4,2.6,20,7.3c0.8,0.7,2.1,0.6,2.8-0.2   c0.7-0.8,0.6-2.1-0.2-2.8C66.3,17.9,58.2,15,50,15c-19.3,0-35,15.7-35,35S30.7,85,50,85z"/></g><text x="0" y="115" fill="#000000" font-size="5px" font-weight="bold" font-family="'Helvetica Neue', Helvetica, Arial-Unicode, Arial, Sans-serif">Created by Icon Depot</text><text x="0" y="120" fill="#000000" font-size="5px" font-weight="bold" font-family="'Helvetica Neue', Helvetica, Arial-Unicode, Arial, Sans-serif">from the Noun Project</text></svg>